<?xml version="1.0" encoding="UTF-8" standalone="no"?>
<!-- Generator: Adobe Illustrator 16.0.0, SVG Export Plug-In . SVG Version: 6.00 Build 0)  -->

<svg
   xmlns:dc="http://purl.org/dc/elements/1.1/"
   xmlns:cc="http://creativecommons.org/ns#"
   xmlns:rdf="http://www.w3.org/1999/02/22-rdf-syntax-ns#"
   xmlns:svg="http://www.w3.org/2000/svg"
   xmlns="http://www.w3.org/2000/svg"
   xmlns:sodipodi="http://sodipodi.sourceforge.net/DTD/sodipodi-0.dtd"
   xmlns:inkscape="http://www.inkscape.org/namespaces/inkscape"
   version="1.1"
   id="Layer_1"
   x="0px"
   y="0px"
   width="512px"
   height="512px"
   viewBox="0 0 512 512"
   enable-background="new 0 0 512 512"
   xml:space="preserve"
   inkscape:version="0.48.4 r9939"
   sodipodi:docname="github.svg"><metadata
     id="metadata76"><rdf:RDF><cc:Work
         rdf:about=""><dc:format>image/svg+xml</dc:format><dc:type
           rdf:resource="http://purl.org/dc/dcmitype/StillImage" /></cc:Work></rdf:RDF></metadata><defs
     id="defs74" /><sodipodi:namedview
     pagecolor="#ffffff"
     bordercolor="#666666"
     borderopacity="1"
     objecttolerance="10"
     gridtolerance="10"
     guidetolerance="10"
     inkscape:pageopacity="0"
     inkscape:pageshadow="2"
     inkscape:window-width="640"
     inkscape:window-height="480"
     id="namedview72"
     showgrid="false"
     inkscape:zoom="0.4609375"
     inkscape:cx="256"
     inkscape:cy="256"
     inkscape:window-x="0"
     inkscape:window-y="0"
     inkscape:window-maximized="0"
     inkscape:current-layer="Layer_1" /><path
     d="M256,0C114.615,0,0,114.615,0,256s114.615,256,256,256s256-114.615,256-256S397.385,0,256,0z M408.028,408.028  c-19.759,19.758-42.756,35.266-68.354,46.093c-6.503,2.75-13.107,5.164-19.8,7.246V423c0-20.167-6.917-35-20.75-44.5  c8.667-0.833,16.625-2,23.875-3.5s14.917-3.667,23-6.5s15.333-6.208,21.75-10.125s12.583-9,18.5-15.25s10.875-13.333,14.875-21.25  s7.167-17.417,9.5-28.5s3.5-23.292,3.5-36.625c0-25.833-8.417-47.833-25.25-66c7.667-20,6.833-41.75-2.5-65.25l-6.25-0.75  c-4.333-0.5-12.125,1.333-23.375,5.5s-23.875,11-37.875,20.5c-19.833-5.5-40.417-8.25-61.75-8.25c-21.5,0-42,2.75-61.5,8.25  c-8.833-6-17.208-10.958-25.125-14.875c-7.917-3.917-14.25-6.583-19-8s-9.167-2.292-13.25-2.625s-6.708-0.417-7.875-0.25  s-2,0.333-2.5,0.5c-9.333,23.667-10.167,45.417-2.5,65.25c-16.833,18.167-25.25,40.167-25.25,66c0,13.333,1.167,25.542,3.5,36.625  s5.5,20.583,9.5,28.5s8.958,15,14.875,21.25s12.083,11.333,18.5,15.25s13.667,7.292,21.75,10.125s15.75,5,23,6.5  s15.208,2.667,23.875,3.5c-13.667,9.333-20.5,24.167-20.5,44.5v39.115c-7.549-2.247-14.99-4.902-22.3-7.994  c-25.597-10.827-48.594-26.335-68.353-46.093c-19.758-19.759-35.267-42.756-46.093-68.354C46.679,313.195,41,285.043,41,256  s5.679-57.195,16.879-83.675c10.827-25.597,26.335-48.594,46.093-68.353s42.756-35.267,68.353-46.093  C198.805,46.679,226.957,41,256,41s57.195,5.679,83.675,16.879c25.598,10.827,48.595,26.335,68.354,46.093  c19.758,19.758,35.266,42.756,46.093,68.353C465.321,198.805,471,226.957,471,256s-5.679,57.195-16.879,83.675  C443.294,365.272,427.786,388.27,408.028,408.028z"
     id="path70" /></svg>