<?xml version="1.0" encoding="UTF-8" standalone="no"?>
<!-- Generator: Adobe Illustrator 16.0.0, SVG Export Plug-In . SVG Version: 6.00 Build 0)  -->

<svg
   xmlns:dc="http://purl.org/dc/elements/1.1/"
   xmlns:cc="http://creativecommons.org/ns#"
   xmlns:rdf="http://www.w3.org/1999/02/22-rdf-syntax-ns#"
   xmlns:svg="http://www.w3.org/2000/svg"
   xmlns="http://www.w3.org/2000/svg"
   xmlns:sodipodi="http://sodipodi.sourceforge.net/DTD/sodipodi-0.dtd"
   xmlns:inkscape="http://www.inkscape.org/namespaces/inkscape"
   version="1.1"
   id="Layer_1"
   x="0px"
   y="0px"
   width="512px"
   height="512px"
   viewBox="0 0 512 512"
   enable-background="new 0 0 512 512"
   xml:space="preserve"
   inkscape:version="0.48.4 r9939"
   sodipodi:docname="gplus.svg"><metadata
     id="metadata82"><rdf:RDF><cc:Work
         rdf:about=""><dc:format>image/svg+xml</dc:format><dc:type
           rdf:resource="http://purl.org/dc/dcmitype/StillImage" /></cc:Work></rdf:RDF></metadata><defs
     id="defs80" /><sodipodi:namedview
     pagecolor="#ffffff"
     bordercolor="#666666"
     borderopacity="1"
     objecttolerance="10"
     gridtolerance="10"
     guidetolerance="10"
     inkscape:pageopacity="0"
     inkscape:pageshadow="2"
     inkscape:window-width="974"
     inkscape:window-height="719"
     id="namedview78"
     showgrid="false"
     inkscape:zoom="0.4609375"
     inkscape:cx="256"
     inkscape:cy="256"
     inkscape:window-x="0"
     inkscape:window-y="0"
     inkscape:window-maximized="0"
     inkscape:current-layer="Layer_1" /><g
     id="g70"><path
       d="M209.304,334.162c-2.208-1.536-4.496-3.129-6.858-4.798c-6.883-2.123-14.152-3.238-21.632-3.318   c-0.315-0.003-0.62-0.005-0.93-0.005c-34.69,0-65.121,21.302-65.121,45.585c0,26.444,25.998,47.159,59.187,47.159   c24.12,0,41.903-4.632,52.854-13.766c8.954-7.469,13.307-17.872,13.307-31.804c0-2.858-0.338-5.776-1.004-8.675   C236.274,353.359,226.928,346.426,209.304,334.162z"
       id="path72" /><path
       d="M256,0C114.615,0,0,114.615,0,256s114.615,256,256,256s256-114.615,256-256S397.385,0,256,0z M256.812,429.536   c-20.807,17.217-49.387,26.317-82.65,26.317c-30.692,0-59.188-6.449-80.238-18.16C70.113,424.447,57,405.06,57,383.102   c0-22.268,12.208-44.534,33.493-61.089c21.139-16.442,48.776-25.613,77.959-25.898c-3.125-6.363-4.7-12.951-4.7-19.712   c0-3.209,0.352-6.468,1.051-9.76c-23.559-1.026-44.831-10.012-60.295-25.562c-16.037-16.127-24.869-38.143-24.869-61.991   c0-22.806,11.474-45.612,31.479-62.572c19.325-16.383,44.694-25.779,69.603-25.779h142.047l-33.512,37.29h-32.309   c9.861,13.337,15.57,31.501,15.57,51.737c0,23.887-11.835,46.484-33.324,63.629c-16.244,12.96-16.324,16.044-16.325,22.657   c0.613,4.122,11.704,16.779,23.409,25.239c29.697,21.444,40.74,42.468,40.74,77.566   C287.018,391.536,276.008,413.653,256.812,429.536z M384,192v64h-32v-64h-64v-32h64V96h32v64h64v32H384z"
       id="path74" /><path
       d="M204.776,226.847c8.643-9.826,12.456-26.164,10.2-43.705c-3.979-30.9-25.348-56.596-47.637-57.28   c-0.285-0.008-0.57-0.013-0.856-0.013c-7.519,0-14.24,3.124-19.438,9.033c-8.519,9.686-12.116,25.26-9.867,42.729   c3.979,30.903,25.792,57.573,47.635,58.24C192.491,236.091,199.394,232.967,204.776,226.847z"
       id="path76" /></g></svg>