<?xml version="1.0" encoding="UTF-8" standalone="no"?>
<!-- Created with Inkscape (http://www.inkscape.org/) by Marsupilami -->

<svg
   xmlns:dc="http://purl.org/dc/elements/1.1/"
   xmlns:cc="http://creativecommons.org/ns#"
   xmlns:rdf="http://www.w3.org/1999/02/22-rdf-syntax-ns#"
   xmlns:svg="http://www.w3.org/2000/svg"
   xmlns="http://www.w3.org/2000/svg"
   xmlns:sodipodi="http://sodipodi.sourceforge.net/DTD/sodipodi-0.dtd"
   xmlns:inkscape="http://www.inkscape.org/namespaces/inkscape"
   version="1.0"
   width="1024"
   height="233"
   viewBox="0 0 130.9225 29.797501"
   id="svg2370"
   inkscape:version="0.48.4 r9939"
   sodipodi:docname="VMware_logo.svg">
  <metadata
     id="metadata8">
    <rdf:RDF>
      <cc:Work
         rdf:about="">
        <dc:format>image/svg+xml</dc:format>
        <dc:type
           rdf:resource="http://purl.org/dc/dcmitype/StillImage" />
        <dc:title></dc:title>
      </cc:Work>
    </rdf:RDF>
  </metadata>
  <sodipodi:namedview
     pagecolor="#ffffff"
     bordercolor="#666666"
     borderopacity="1"
     objecttolerance="10"
     gridtolerance="10"
     guidetolerance="10"
     inkscape:pageopacity="0"
     inkscape:pageshadow="2"
     inkscape:window-width="968"
     inkscape:window-height="682"
     id="namedview6"
     showgrid="false"
     inkscape:zoom="0.26855469"
     inkscape:cx="512"
     inkscape:cy="116.5"
     inkscape:window-x="0"
     inkscape:window-y="0"
     inkscape:window-maximized="0"
     inkscape:current-layer="layer1" />
  <defs
     id="defs2372" />
  <g
     transform="translate(-131.5675,-58.965)"
     id="layer1">
    <path
       d="M 7.15625,0 C 5.925,0 4.9375,0.9675 4.9375,2.15625 l 0,7.375 -2.71875,0 C 0.98750001,9.5312497 0,10.5025 0,11.6875 l 0,15.96875 c 0,1.188751 0.9875,2.15625 2.21875,2.15625 l 16.5,0 c 1.23125,-1e-6 2.25,-0.9675 2.25,-2.15625 l 0,-2.625 7.625,0 c 1.23,1e-6 2.21875,-0.97125 2.21875,-2.15625 l 0,-15.96875 c 0,-1.1862501 -0.98875,-2.125 -2.21875,-2.125 l -2.71875,0 0,-2.625 C 25.875,0.96750003 24.885,0 23.65625,0 z m 0,1.21875 16.5,0 c 0.538749,1e-7 0.96875,0.415 0.96875,0.9375 l 0,2.625 -12.53125,0 c -1.22875,-1e-7 -2.25,0.93875 -2.25,2.125 l 0,2.625 -3.65625,0 0,-7.375 c -2e-7,-0.5225 0.42625,-0.9375 0.96875,-0.9375 z m 4.9375,4.75 12.53125,0 0,12.125 c 0,0.522501 -0.43,0.96875 -0.96875,0.96875 l -2.6875,0 0,-7.375 c 1e-6,-1.185 -1.01875,-2.15625 -2.25,-2.15625 l -7.625,0 0,-2.625 c 0,-0.5212501 0.46125,-0.9375 1,-0.9375 z m 13.78125,0 2.71875,0 c 0.54,-2e-7 0.96875,0.41625 0.96875,0.9375 l 0,15.96875 c 0,0.52125 -0.42875,0.9375 -0.96875,0.9375 l -7.625,0 0,-3.53125 2.6875,0 c 1.228749,-1e-6 2.21875,-0.99875 2.21875,-2.1875 z M 2.21875,10.75 l 2.71875,0 0,7.34375 c 0,1.188751 0.9875,2.1875 2.21875,2.1875 l 2.6875,0 0,2.59375 c 2e-7,1.185 1.02125,2.15625 2.25,2.15625 l 7.625,0 0,2.625 c 1e-6,0.521251 -0.4575,0.9375 -1,0.9375 l -16.5,0 C 1.6725,28.593749 1.25,28.1775 1.25,27.65625 l 0,-15.96875 c 1e-7,-0.52 0.4225,-0.9375 0.96875,-0.9375 z m 3.96875,0 3.65625,0 0,8.3125 -2.6875,0 c -0.5425,0 -0.96875,-0.44625 -0.96875,-0.96875 z m 4.90625,0 7.625,0 c 0.5425,0 1,0.4175 1,0.9375 l 0,7.375 -8.625,0 z m 0,9.53125 8.625,0 0,3.53125 -7.625,0 c -0.53875,0 -1,-0.41625 -1,-0.9375 z"
       transform="translate(131.5675,58.965)"
       style="fill:#7498bf;fill-opacity:1;fill-rule:nonzero;stroke:none"
       id="path2985"
       inkscape:connector-curvature="0"
       sodipodi:nodetypes="sscsssssscsssscsssssscssccssscsscsscsscssssccsscscsscsscsssssscccssccssccccccssc"
       inkscape:export-filename="/home/nap/partners/fichiers/vmware_menu.png"
       inkscape:export-xdpi="11.968225"
       inkscape:export-ydpi="11.968225" />
  </g>
</svg>
